<svg width="135" height="45" xmlns="http://www.w3.org/2000/svg">

 <g id="svg_11">
  <svg y="219" id="svg_10" height="8" viewBox="0 0 14 8" width="14">
   <title>key_hover</title>
   <path id="svg_35" fill="#013E83" d="m7.9,3c-0.5,-1.8 -2.1,-3 -3.9,-3c-2.2,-0.1 -4,1.7 -4,4c0.1,2.3 1.9,4.1 4,4c1.7,0 3.3,-1.2 3.8,-3l3.2,0l0,2l2,0l0,-2l1,0l0,-2l-6.1,0zm-4,3c-1.1,0 -2,-0.9 -2,-2c0.1,-1.2 0.9,-2 2,-2s2,0.9 2,2c0,1.2 -0.9,2 -2,2z"/>
  </svg>
 </g>
 <g>
  <title>Layer 1</title>
  <svg x="1.571382" y="0.952107" id="svg_22" height="40" viewBox="0 0 40 40" width="40">
   <path id="svg_53" fill="none" d="m3.3,0.5l33.3,0c1.6,0 2.8,1.3 2.8,2.8l0,33.3c0,1.6 -1.3,2.8 -2.8,2.8l-33.3,0c-1.6,0 -2.8,-1.3 -2.8,-2.8l0,-33.3c0,-1.5 1.3,-2.8 2.8,-2.8z"/>
   <path id="svg_54" fill="#565656" d="m36.7,40l-33.4,0c-1.8,0 -3.3,-1.5 -3.3,-3.3l0,-33.4c0,-1.8 1.5,-3.3 3.3,-3.3l33.3,0c1.9,0 3.4,1.5 3.4,3.3l0,33.3c0,1.9 -1.5,3.4 -3.3,3.4zm-33.4,-39c-1.3,0 -2.3,1 -2.3,2.3l0,33.3c0,1.4 1,2.4 2.3,2.4l33.3,0c1.4,0 2.4,-1 2.4,-2.3l0,-33.4c0,-1.3 -1,-2.3 -2.3,-2.3l-33.4,0z"/>
   <path id="svg_55" fill="#565656" d="m25.5,17l-3.9,0l0,-1.9s-0.2,-1.8 1,-1.8l2.6,0l0,-3.9l-4.4,0s-3.7,0 -3.7,3.7l0,3.9l-2.5,0l0,3.1l2.5,0l0,10.5l4.5,0l0,-10.5l2.9,0l1,-3.1"/>
  </svg>
  <g y="56.499783" x="67.499945" id="svg_25">
   <svg x="45.714226" y="1.285719" id="svg_24" height="40" viewBox="0 0 40 40" width="40">
    <path id="svg_56" fill="#565656" d="m36.7,40l-33.4,0c-1.8,0 -3.3,-1.5 -3.3,-3.3l0,-33.4c0,-1.8 1.5,-3.3 3.3,-3.3l33.4,0c1.8,0 3.3,1.5 3.3,3.3l0,33.4c0,1.8 -1.5,3.3 -3.3,3.3zm-33.4,-39c-1.3,0 -2.3,1 -2.3,2.3l0,33.4c0,1.3 1,2.3 2.3,2.3l33.4,0c1.3,0 2.3,-1 2.3,-2.3l0,-33.4c0,-1.3 -1,-2.3 -2.3,-2.3l-33.4,0z"/>
    <path id="svg_57" fill="#565656" d="m28.8,14c1,-0.6 1.7,-1.5 2,-2.5c-0.9,0.5 -1.9,0.9 -2.9,1.1c-0.9,-0.9 -2,-1.5 -3.3,-1.5c-2.5,0 -4.6,2 -4.6,4.6c0,0.4 0,0.7 0.1,1.1c-3.8,-0.2 -7.2,-2 -9.5,-4.8c-0.4,0.7 -0.6,1.5 -0.6,2.2c0,1.6 0.8,2.9 2,3.8c-0.8,0 -1.5,-0.2 -2,-0.6l0,0.1c0,2.2 1.6,4 3.7,4.5c-0.4,0.1 -0.8,0.2 -1.2,0.2c-0.3,0 -0.6,0 -0.9,-0.1c0.6,1.8 2.2,3.1 4.3,3.1c-1.6,1.2 -3.5,2 -5.7,2c-0.4,0 -0.8,0 -1.1,-0.1c2,1.3 4.5,2 7,2c8.5,0 13.1,-6.9 13.1,-12.9l0,-0.6c0.9,-0.7 1.7,-1.5 2.3,-2.3c-1,0.4 -1.8,0.6 -2.7,0.7z"/>
   </svg>
  </g>
  <g stroke="null" y="163.999817" x="119.99999" id="svg_67">
   <svg stroke="null" x="89.03243" y="1.285718" id="svg_26" height="40" viewBox="0 0 40 40" width="40">
    <path stroke="null" id="svg_58" fill="none" d="m3.3,0.5l33.4,0c1.6,0 2.8,1.3 2.8,2.8l0,33.4c0,1.6 -1.3,2.8 -2.8,2.8l-33.4,0c-1.6,0 -2.8,-1.3 -2.8,-2.8l0,-33.4c0,-1.5 1.3,-2.8 2.8,-2.8z"/>
    <path stroke="null" id="svg_59" fill="#565656" d="m36.7,40l-33.4,0c-1.8,0 -3.3,-1.5 -3.3,-3.3l0,-33.4c0,-1.8 1.5,-3.3 3.3,-3.3l33.4,0c1.8,0 3.3,1.5 3.3,3.3l0,33.4c0,1.8 -1.5,3.3 -3.3,3.3zm-33.4,-39c-1.3,0 -2.3,1 -2.3,2.3l0,33.4c0,1.3 1,2.3 2.3,2.3l33.4,0c1.3,0 2.3,-1 2.3,-2.3l0,-33.4c0,-1.3 -1,-2.3 -2.3,-2.3l-33.4,0z"/>
    <path stroke="null" id="svg_60" fill="#565656" d="m29.1,18.8c0.3,-0.4 0.6,-0.8 0.8,-1.1c1.4,-1.9 2,-3.1 1.9,-3.6l-0.2,-0.1c-0.1,-0.1 -0.2,-0.1 -0.4,-0.2s-0.5,-0.1 -0.8,0l-4.1,0l-0.1,0.2c0,0.1 -0.1,0.1 -0.1,0.2c-0.4,1 -0.8,2 -1.3,2.7c-0.3,0.5 -0.6,1 -0.8,1.3c-0.3,0.4 -0.5,0.7 -0.6,0.8c-0.2,0.2 -0.3,0.3 -0.5,0.4c-0.1,0.1 -0.2,0.2 -0.3,0.1l-0.2,0l-0.3,-0.3c-0.1,-0.1 -0.1,-0.3 -0.1,-0.5l0,-4.7c0,-0.1 -0.1,-0.3 -0.1,-0.4c-0.1,-0.1 -0.1,-0.2 -0.3,-0.3c-0.1,-0.1 -0.3,-0.1 -0.4,-0.2c-0.4,-0.1 -1,-0.2 -1.7,-0.2c-1.5,0 -2.4,0.1 -2.9,0.3c-0.2,0.1 -0.3,0.2 -0.5,0.4c-0.1,0.2 -0.2,0.3 -0.1,0.3c0.5,0.1 0.9,0.3 1.1,0.5l0.1,0.2c0.1,0.1 0.1,0.3 0.2,0.6s0.1,0.6 0.1,0.9l0,1.6c0,0.4 -0.1,0.8 -0.1,1s-0.1,0.4 -0.2,0.6s-0.1,0.2 -0.2,0.3c0,0 0,0.1 -0.1,0.1s-0.2,0.1 -0.3,0.1c-0.1,0 -0.3,-0.1 -0.4,-0.2c-0.2,-0.1 -0.3,-0.3 -0.5,-0.5s-0.4,-0.5 -0.6,-0.9c-0.2,-0.4 -0.5,-0.8 -0.7,-1.3l-0.2,-0.4l-0.5,-1c-0.2,-0.4 -0.4,-0.9 -0.6,-1.3c-0.1,-0.2 -0.2,-0.3 -0.3,-0.4l0.2,0s-0.1,-0.1 -0.2,-0.1s-0.2,-0.1 -0.3,-0.1l-3.3,0c-0.3,0 -0.6,0.1 -0.7,0.2l0,0.2c0,0.1 0,0.2 0.1,0.3c0.5,1.2 1,2.2 1.6,3.3s1.1,2 1.5,2.5c0.4,0.7 0.9,1.3 1.3,1.9s0.7,1 0.9,1.1c0.1,0.2 0.7,0.7 0.7,0.7c0.2,0.2 0.5,0.4 0.9,0.7s0.8,0.6 1.3,0.8c0.5,0.3 1,0.5 1.6,0.7s1.2,0.2 1.8,0.2l1.4,0c0.3,0 0.5,-0.1 0.7,-0.3l0,-0.1s0.1,-0.1 0.1,-0.2l0,-0.3c0,-0.4 0,-0.7 0.1,-1s0.1,-0.5 0.2,-0.7c0.1,-0.1 0.2,-0.3 0.3,-0.4l0.2,-0.2l0.1,0c0.2,-0.1 0.4,0 0.7,0.2s0.5,0.4 0.8,0.7c0.2,0.3 0.5,0.6 0.9,1c0.3,0.4 0.6,0.6 0.9,0.8l0.2,0.2l0.6,0.3c0.3,0.1 0.5,0.1 0.7,0.1l3.1,0c0.3,0 0.6,-0.1 0.7,-0.2c0.2,-0.1 0.3,-0.2 0.3,-0.3l0,-0.4c0,-0.2 -0.1,-0.3 -0.1,-0.3c0,-0.1 -0.1,-0.1 -0.1,-0.2c-0.4,-0.8 -1.2,-1.7 -2.3,-2.7l-1,-1c-0.3,-0.3 -0.3,-0.7 -0.2,-1c-0.5,0 -0.1,-0.5 0.6,-1.4"/>
   </svg>
  </g>
 </g>
 <g>
  <title>background</title>
  <rect fill="none" id="canvas_background" height="47" width="137" y="-1" x="-1"/>
 </g>
</svg>